<?xml version="1.0" encoding="UTF-8" standalone="no"?>
<svg
   width="1853"
   height="216"
   viewBox="0 0 1853 216"
   fill="none"
   version="1.1"
   id="svg39"
   sodipodi:docname="fala2.svg"
   xml:space="preserve"
   xmlns:inkscape="http://www.inkscape.org/namespaces/inkscape"
   xmlns:sodipodi="http://sodipodi.sourceforge.net/DTD/sodipodi-0.dtd"
   xmlns="http://www.w3.org/2000/svg"
   xmlns:svg="http://www.w3.org/2000/svg"><sodipodi:namedview
     id="namedview41"
     pagecolor="#505050"
     bordercolor="#eeeeee"
     borderopacity="1"
     inkscape:showpageshadow="0"
     inkscape:pageopacity="0"
     inkscape:pagecheckerboard="0"
     inkscape:deskcolor="#505050"
     showgrid="false" /><g
     filter="url(#filter0_d_37_99)"
     id="g13"><path
       fill-rule="evenodd"
       clip-rule="evenodd"
       d="M 1891.43,0 1921,231.5 c -42.65,27 -143.69,-94.5 -254.58,-89 -88.35,27 -210.62,19.5 -297.44,-7.5 C 1282.15,108 1195.33,54 1108.51,36 1021.69,18 933.344,108 846.522,108 759.7,108 660.054,29 573.232,24.5 486.41,20 377.79,24.5 290.002,59.5 203.18,82 46.6493,218.5 4,236.5 H 27.1019 L 63.603,216 h 44.172 c 42.65,0 129.471,0 216.293,0 88.345,0 175.167,0 261.989,0 86.822,0 173.643,0 260.465,0 86.822,0 175.168,0 261.988,0 86.82,0 173.64,0 260.47,0 86.82,0 173.64,0 261.98,0 86.83,0 173.65,0 216.3,0 h 44.17 z"
       fill="url(#paint0_linear_37_99)"
       fill-opacity="0.76"
       shape-rendering="crispEdges"
       id="path9"
       style="fill:url(#paint0_linear_37_99)" /><path
       fill-rule="evenodd"
       clip-rule="evenodd"
       d="M 1891.43,0 1921,231.5 c -42.65,27 -143.69,-94.5 -254.58,-89 -88.35,27 -210.62,19.5 -297.44,-7.5 C 1282.15,108 1195.33,54 1108.51,36 1021.69,18 933.344,108 846.522,108 759.7,108 660.054,29 573.232,24.5 486.41,20 377.79,24.5 290.002,59.5 203.18,82 46.6493,218.5 4,236.5 H 27.1019 L 63.603,216 h 44.172 c 42.65,0 129.471,0 216.293,0 88.345,0 175.167,0 261.989,0 86.822,0 173.643,0 260.465,0 86.822,0 175.168,0 261.988,0 86.82,0 173.64,0 260.47,0 86.82,0 173.64,0 261.98,0 86.83,0 173.65,0 216.3,0 h 44.17 z"
       stroke="#000000"
       shape-rendering="crispEdges"
       id="path11" /></g><defs
     id="defs37"><filter
       id="filter0_d_37_99"
       x="0"
       y="0"
       width="1925"
       height="244.5"
       filterUnits="userSpaceOnUse"
       color-interpolation-filters="sRGB"><feFlood
         flood-opacity="0"
         result="BackgroundImageFix"
         id="feFlood15" /><feColorMatrix
         in="SourceAlpha"
         type="matrix"
         values="0 0 0 0 0 0 0 0 0 0 0 0 0 0 0 0 0 0 127 0"
         result="hardAlpha"
         id="feColorMatrix17" /><feOffset
         dy="4"
         id="feOffset19" /><feGaussianBlur
         stdDeviation="2"
         id="feGaussianBlur21" /><feComposite
         in2="hardAlpha"
         operator="out"
         id="feComposite23" /><feColorMatrix
         type="matrix"
         values="0 0 0 0 0 0 0 0 0 0 0 0 0 0 0 0 0 0 0.25 0"
         id="feColorMatrix25" /><feBlend
         mode="normal"
         in2="BackgroundImageFix"
         result="effect1_dropShadow_37_99"
         id="feBlend27" /><feBlend
         mode="normal"
         in="SourceGraphic"
         in2="effect1_dropShadow_37_99"
         result="shape"
         id="feBlend29" /></filter><linearGradient
       id="paint0_linear_37_99"
       x1="1001.58"
       y1="-5.5"
       x2="1001.58"
       y2="210.5"
       gradientUnits="userSpaceOnUse"><stop
         offset="0.078125"
         stop-color="#039AFF"
         id="stop32" /><stop
         offset="0.838542"
         stop-color="#DC03FF"
         stop-opacity="0.385417"
         id="stop34" /></linearGradient><linearGradient
       id="paint0_linear_37_100"
       x1="1023.77"
       y1="72.127701"
       x2="1023.77"
       y2="304.43701"
       gradientUnits="userSpaceOnUse"
       gradientTransform="translate(-49.968539,23.943258)"><stop
         offset="0.078125"
         stop-color="#3F99D6"
         stop-opacity="0.65"
         id="stop234" /><stop
         offset="0.364583"
         stop-color="#FF0DE7"
         id="stop236" /><stop
         offset="0.40625"
         stop-color="#DA01FF"
         stop-opacity="0.22"
         id="stop238" /><stop
         offset="0.838442"
         stop-color="#DB00FF"
         stop-opacity="0.98"
         id="stop240" /><stop
         offset="1"
         stop-color="#DC03FF"
         stop-opacity="0.385417"
         id="stop242" /></linearGradient></defs><g
     style="fill:none"
     id="g258"
     transform="translate(57.526966,28.954495)"><path
       fill-rule="evenodd"
       clip-rule="evenodd"
       d="m 1840.3215,99.513358 -19.62,89.929902 c -44.73,29.039 -135.79,-62.655 -226.84,-33.616 -92.66,29.039 -183.72,29.039 -274.77,0 -91.06,-29.039 -182.12,-87.116002 -273.17,-106.475202 -91.06004,-19.35908 -198.16904,97.658202 -289.22704,97.658202 -91.057,0 -167.663,-117.017282 -258.72,-121.857062 -91.058,-4.83977 -182.116,4.83978 -274.77,29.03866 -91.058,24.1989 -218.8398993,119.892402 -263.569729,139.251402 l -9.60327,9 v 40.5 h 46.3275997 c 44.7299003,0 135.7873993,0 226.8453993,0 92.654,0 183.712,0 274.77,0 91.057,0 182.115,0 273.172,0 91.057,0 183.715,0 274.77504,0 91.05,0 182.11,0 273.17,0 91.05,0 182.11,0 274.77,0 91.05,0 182.11,0 226.84,0 h 46.33 z"
       fill="url(#paint0_linear_37_100)"
       id="path232"
       style="fill:url(#paint0_linear_37_100)" /></g></svg>
